<?xml version="1.0" encoding="UTF-8"?>
<svg version="1.1" xmlns="http://www.w3.org/2000/svg" width="500" height="500">
<path d="M0 0 C165 0 330 0 500 0 C500 165 500 330 500 500 C335 500 170 500 0 500 C0 335 0 170 0 0 Z " fill="#0197B2" transform="translate(0,0)"/>
<path d="M0 0 C0.66 0.33 1.32 0.66 2 1 C-2.62 5.62 -7.24 10.24 -12 15 C-12 12 -12 12 -9.375 9.08203125 C-8.25750594 7.98449244 -7.13214357 6.89492105 -6 5.8125 C-5.42765625 5.25369141 -4.8553125 4.69488281 -4.265625 4.11914062 C-2.85037212 2.73926907 -1.42602845 1.36873266 0 0 Z M71 -77 C71 -74 71 -74 69.21961975 -71.85047626 C67.95860695 -70.59361153 67.95860695 -70.59361153 66.67211914 -69.31135559 C65.97383169 -68.60922323 65.97383169 -68.60922323 65.26143742 -67.89290637 C63.69306192 -66.31957271 62.11417196 -64.75722957 60.53515625 -63.19458008 C59.41137371 -62.07164337 58.2882506 -60.94804641 57.16574097 -59.82383728 C54.11053758 -56.76777081 51.04615215 -53.72106192 47.98008347 -50.67590165 C44.77964068 -47.49417344 41.58765405 -44.30398535 38.39477539 -41.1146698 C32.34463234 -35.07386258 26.28688044 -29.04074528 20.22638416 -23.01032704 C13.32823851 -16.14567757 6.43857814 -9.272539 -0.45036888 -2.3986603 C-14.62413203 11.74371899 -28.80856191 25.87535851 -43 40 C-41.8790188 39.04957831 -40.75951148 38.09741806 -39.640625 37.14453125 C-39.01704102 36.61448486 -38.39345703 36.08443848 -37.75097656 35.53833008 C-35.86691028 33.92349655 -35.86691028 33.92349655 -33.75 31.6875 C-32 30 -32 30 -29 29 C-27.31949757 27.34209408 -27.31949757 27.34209408 -25.6875 25.3125 C-22.61343464 21.68248665 -19.40398838 18.32096428 -16 15 C-14.515 15.495 -14.515 15.495 -13 16 C-15.64 18.64 -18.28 21.28 -21 24 C-20.01 23.34 -19.02 22.68 -18 22 C-17.34 22 -16.68 22 -16 22 C-17.20381448 24.49361571 -18.45428722 26.68143083 -20 29 C-18.02 27.35 -16.04 25.7 -14 24 C-13.34 24.33 -12.68 24.66 -12 25 C-14.97 27.97 -17.94 30.94 -21 34 C-19.515 34.495 -19.515 34.495 -18 35 C-23.75 40 -23.75 40 -26 40 C-26 40.99 -26 41.98 -26 43 C-25.34 43.33 -24.68 43.66 -24 44 C-24.66 44.99 -25.32 45.98 -26 47 C-25.34 47.66 -24.68 48.32 -24 49 C-26.28819146 50.50554634 -28.58021169 52.00457043 -30.875 53.5 C-31.52597656 53.92925781 -32.17695312 54.35851562 -32.84765625 54.80078125 C-37.7734375 58 -37.7734375 58 -40 58 C-40 58.66 -40 59.32 -40 60 C-39.05125 59.505 -38.1025 59.01 -37.125 58.5 C-34 57 -34 57 -32 57 C-32.33 57.99 -32.66 58.98 -33 60 C-32.34 60.66 -31.68 61.32 -31 62 C-31.66 62 -32.32 62 -33 62 C-33 62.66 -33 63.32 -33 64 C-31.35 64 -29.7 64 -28 64 C-30.105868 66.105868 -31.7365229 66.92752247 -34.4375 68.125 C-35.21996094 68.47820312 -36.00242188 68.83140625 -36.80859375 69.1953125 C-39 70 -39 70 -42 70 C-41.67 70.66 -41.34 71.32 -41 72 C-39.02 71.67 -37.04 71.34 -35 71 C-35.99 71.99 -36.98 72.98 -38 74 C-37.43152344 73.86722656 -36.86304688 73.73445312 -36.27734375 73.59765625 C-31.52848903 72.5115242 -26.83219676 71.61687618 -22 71 C-25.47859908 73.31906605 -28.99599016 74.38787502 -32.94921875 75.6015625 C-33.72183548 75.8428891 -34.49445221 76.0842157 -35.29048157 76.33285522 C-37.75477026 77.10143585 -40.2210789 77.86329347 -42.6875 78.625 C-44.36016359 79.14539142 -46.03269137 79.66621959 -47.70507812 80.1875 C-51.80182761 81.46340372 -55.90040128 82.73328249 -60 84 C-52.67247427 82.20225982 -45.3453383 80.40293684 -38.01859474 78.60201168 C-34.39450166 77.71121801 -30.77032174 76.82078128 -27.14593506 75.93118286 C-11.01968192 71.97251675 5.09983983 67.99013845 21.19663239 63.9131279 C23.43905235 63.3453847 25.68172848 62.77866544 27.92449951 62.21231079 C29.38781905 61.84271902 30.85113694 61.47312069 32.31445312 61.10351562 C33.02826267 60.92324514 33.74207222 60.74297466 34.47751236 60.55724144 C38.72572468 59.48349923 42.97191255 58.40213257 47.21686363 57.31557369 C49.22053929 56.80402224 51.22510636 56.29616011 53.23013306 55.78993225 C55.67593181 55.17225771 58.12018912 54.5484357 60.56259155 53.91746521 C61.63618927 53.64813675 62.70978699 53.37880829 63.81591797 53.10131836 C65.21727493 52.74401894 65.21727493 52.74401894 66.64694214 52.37950134 C69 52 69 52 72 53 C59.33158467 56.58953402 46.61392701 59.91447088 33.8359375 63.08984375 C31.94612483 63.5613595 30.05636569 64.03308987 28.16665649 64.50502014 C23.23479481 65.73609807 18.30223525 66.96435575 13.36950684 68.19195557 C8.41649003 69.42511158 3.46412802 70.66089114 -1.48828125 71.89648438 C-9.0117258 73.77325235 -16.53549881 75.64869637 -24.05957031 77.52294922 C-35.37478119 80.34170191 -46.68794268 83.16861765 -58 86 C-57.01 86.99 -57.01 86.99 -56 88 C-57.32 88.33 -58.64 88.66 -60 89 C-58.14977843 91.28055323 -58.14977843 91.28055323 -55.29443359 91.22705078 C-54.17375488 91.21657715 -53.05307617 91.20610352 -51.8984375 91.1953125 C-50.08085938 91.18564453 -50.08085938 91.18564453 -48.2265625 91.17578125 C-46.32003906 91.15064453 -46.32003906 91.15064453 -44.375 91.125 C-43.09625 91.11597656 -41.8175 91.10695313 -40.5 91.09765625 C-37.33314833 91.07402303 -34.16666576 91.04107629 -31 91 C-31 91.33 -31 91.66 -31 92 C-41.23 92.66 -51.46 93.32 -62 94 C-17.78 94.33 26.44 94.66 72 95 C72 95.33 72 95.66 72 96 C15.24 96 -41.52 96 -100 96 C-98.38452227 92.76904454 -97.52244627 91.27278339 -95.11456871 88.86847305 C-94.52189276 88.27181501 -93.92921681 87.67515696 -93.31858099 87.06041837 C-92.66683641 86.41449947 -92.01509183 85.76858057 -91.34359741 85.10308838 C-90.65176821 84.40955033 -89.95993901 83.71601228 -89.2471453 83.00145793 C-86.92258598 80.67359855 -84.59093958 78.35296978 -82.25927734 76.03222656 C-80.5935494 74.36706262 -78.92826144 72.70145843 -77.26338196 71.03544617 C-72.73712109 66.50861036 -68.20471047 61.98797706 -63.67119551 57.46840763 C-59.41542264 53.2248068 -55.165196 48.97565344 -50.91447635 44.72699222 C-42.4950687 36.31196158 -34.07120461 27.90140675 -25.64453125 19.49365234 C-17.45892013 11.32639987 -9.27541267 3.15704899 -1.09472656 -5.01513672 C-0.59044976 -5.51888808 -0.08617295 -6.02263944 0.43338497 -6.54165599 C2.96318613 -9.06884707 5.49294598 -11.5960795 8.02268529 -14.1233325 C29.00872176 -35.08863629 50.00206898 -56.04660912 71 -77 Z " fill="#84CDDA" transform="translate(122,247)"/>
<path d="M0 0 C0.66 0.33 1.32 0.66 2 1 C-2.62 5.62 -7.24 10.24 -12 15 C-12 12 -12 12 -9.375 9.08203125 C-8.25750594 7.98449244 -7.13214357 6.89492105 -6 5.8125 C-5.42765625 5.25369141 -4.8553125 4.69488281 -4.265625 4.11914062 C-2.85037212 2.73926907 -1.42602845 1.36873266 0 0 Z M71 -77 C71 -74 71 -74 69.21961975 -71.85047626 C67.95860695 -70.59361153 67.95860695 -70.59361153 66.67211914 -69.31135559 C65.97383169 -68.60922323 65.97383169 -68.60922323 65.26143742 -67.89290637 C63.69306192 -66.31957271 62.11417196 -64.75722957 60.53515625 -63.19458008 C59.41137371 -62.07164337 58.2882506 -60.94804641 57.16574097 -59.82383728 C54.11053758 -56.76777081 51.04615215 -53.72106192 47.98008347 -50.67590165 C44.77964068 -47.49417344 41.58765405 -44.30398535 38.39477539 -41.1146698 C32.34463234 -35.07386258 26.28688044 -29.04074528 20.22638416 -23.01032704 C13.32823851 -16.14567757 6.43857814 -9.272539 -0.45036888 -2.3986603 C-14.62413203 11.74371899 -28.80856191 25.87535851 -43 40 C-41.8790188 39.04957831 -40.75951148 38.09741806 -39.640625 37.14453125 C-39.01704102 36.61448486 -38.39345703 36.08443848 -37.75097656 35.53833008 C-35.86691028 33.92349655 -35.86691028 33.92349655 -33.75 31.6875 C-32 30 -32 30 -29 29 C-27.31949757 27.34209408 -27.31949757 27.34209408 -25.6875 25.3125 C-22.61343464 21.68248665 -19.40398838 18.32096428 -16 15 C-15.01 15.33 -14.02 15.66 -13 16 C-15.64 18.64 -18.28 21.28 -21 24 C-20.01 23.34 -19.02 22.68 -18 22 C-17.34 22 -16.68 22 -16 22 C-17.20381448 24.49361571 -18.45428722 26.68143083 -20 29 C-18.02 27.35 -16.04 25.7 -14 24 C-13.01 24.495 -13.01 24.495 -12 25 C-14.97 27.97 -17.94 30.94 -21 34 C-20.01 34.33 -19.02 34.66 -18 35 C-23.75 40 -23.75 40 -26 40 C-26 40.99 -26 41.98 -26 43 C-25.01 43.495 -25.01 43.495 -24 44 C-24.66 44.99 -25.32 45.98 -26 47 C-25.01 47.99 -25.01 47.99 -24 49 C-26.28819146 50.50554634 -28.58021169 52.00457043 -30.875 53.5 C-31.85146484 54.14388672 -31.85146484 54.14388672 -32.84765625 54.80078125 C-37.7734375 58 -37.7734375 58 -40 58 C-40 58.66 -40 59.32 -40 60 C-39.05125 59.505 -38.1025 59.01 -37.125 58.5 C-34 57 -34 57 -32 57 C-32.33 57.99 -32.66 58.98 -33 60 C-32.01 60.99 -32.01 60.99 -31 62 C-31.66 62 -32.32 62 -33 62 C-33 62.66 -33 63.32 -33 64 C-31.35 64 -29.7 64 -28 64 C-32.6167388 68.6167388 -39.79634498 70.41608808 -46 72 C-45.34 72 -44.68 72 -44 72 C-44 72.66 -44 73.32 -44 74 C-47.96 75.65 -51.92 77.3 -56 79 C-55.34 79.33 -54.68 79.66 -54 80 C-55.59915881 80.69906942 -57.20455045 81.38389468 -58.8125 82.0625 C-59.70582031 82.44535156 -60.59914063 82.82820312 -61.51953125 83.22265625 C-64 84 -64 84 -67 83 C-67 81 -67 81 -65 79 C-61 77.66666667 -57 76.33333333 -53 75 C-54.65 75.33 -56.3 75.66 -58 76 C-56.33333333 74.33333333 -54.66666667 72.66666667 -53 71 C-53 70.34 -53 69.68 -53 69 C-53.61875 69.165 -54.2375 69.33 -54.875 69.5 C-57.87482646 70.20584152 -58.9906231 70.00312563 -62 69 C-62.99 69 -63.98 69 -65 69 C-64.67 68.01 -64.34 67.02 -64 66 C-63.01 65.67 -62.02 65.34 -61 65 C-61.66 64.34 -62.32 63.68 -63 63 C-60.35261084 61.5393715 -59.10551666 61 -56 61 C-56.33 60.01 -56.66 59.02 -57 58 C-57 53.21073712 -55.82792599 50.0119907 -52.78611565 46.29392433 C-51.8587919 45.37028776 -50.93146816 44.44665119 -49.9760437 43.49502563 C-49.45980725 42.97537149 -48.94357081 42.45571734 -48.41169083 41.9203161 C-46.68599565 40.18805219 -44.9464324 38.4704391 -43.20654297 36.75244141 C-41.96402518 35.51105231 -40.72238833 34.26878096 -39.48156738 33.0256958 C-36.11465809 29.65763929 -32.73556223 26.30205454 -29.35414648 22.94857073 C-25.82091907 19.44035536 -22.29902265 15.92080241 -18.77590942 12.4024353 C-12.10451093 5.7434671 -5.42298194 -0.90523933 1.26224506 -7.55032122 C8.87341756 -15.11677788 16.47322952 -22.69460137 24.07210755 -30.27340198 C39.70212871 -45.86161757 55.34636466 -61.43550021 71 -77 Z " fill="#65C0D0" transform="translate(122,247)"/>
<path d="M0 0 C4.30626971 2.50119801 7.44448819 5.45995632 9.390625 10.08203125 C10.15367761 17.45820653 10.30761095 23.6000214 6.390625 30.08203125 C0.32207055 35.8867355 -4.57999572 37.55782143 -12.8203125 37.40234375 C-18.11895774 36.79381587 -21.86806731 34.45674785 -25.984375 31.20703125 C-30.44524392 25.37358728 -30.49834058 18.13819557 -29.609375 11.08203125 C-27.8479448 6.22237114 -24.69351221 2.03233366 -19.95703125 -0.2890625 C-13.59586384 -1.99313563 -6.24318379 -2.19632963 0 0 Z " fill="#F7FBFC" transform="translate(277.609375,278.91796875)"/>
<path d="M0 0 C3.37599028 1.63495278 5.20888854 3.07309844 7.30078125 6.2109375 C6.92578125 8.8984375 6.92578125 8.8984375 6.30078125 11.2109375 C3.61328125 11.5234375 3.61328125 11.5234375 0.30078125 11.2109375 C-2.80086644 8.66069385 -4.42488291 7.03394503 -5.69921875 3.2109375 C-6.97796875 3.0253125 -8.25671875 2.8396875 -9.57421875 2.6484375 C-10.29351562 2.54402344 -11.0128125 2.43960938 -11.75390625 2.33203125 C-13.78062542 2.0425078 -13.78062542 2.0425078 -15.69921875 3.2109375 C-15.69921875 4.5309375 -15.69921875 5.8509375 -15.69921875 7.2109375 C-15.08401367 7.48768311 -14.46880859 7.76442871 -13.83496094 8.04956055 C-11.03337944 9.31904367 -8.24142032 10.60846233 -5.44921875 11.8984375 C-4.48113281 12.33349609 -3.51304687 12.76855469 -2.515625 13.21679688 C6.5549049 17.43928493 6.5549049 17.43928493 9.30078125 22.2109375 C9.81307543 25.72381188 9.54665181 27.65449361 8.11328125 30.8984375 C4.85491311 35.05566581 1.38287806 36.37756291 -3.69921875 37.2109375 C-10.70287678 37.7553175 -16.39396275 37.41887476 -22.69921875 34.2109375 C-25.26171875 31.8359375 -25.26171875 31.8359375 -26.69921875 29.2109375 C-26.40653582 24.91825457 -26.40653582 24.91825457 -24.69921875 23.2109375 C-22.51171875 22.7109375 -22.51171875 22.7109375 -19.69921875 23.2109375 C-17.36947136 25.3000537 -15.4198195 27.59751643 -13.69921875 30.2109375 C-13.69921875 30.8709375 -13.69921875 31.5309375 -13.69921875 32.2109375 C-10.94842991 33.12786711 -9.33972962 33.31979833 -6.51171875 33.2734375 C-5.25359375 33.2528125 -3.99546875 33.2321875 -2.69921875 33.2109375 C-2.36921875 31.8909375 -2.03921875 30.5709375 -1.69921875 29.2109375 C-5.07535664 27.24806663 -8.45670624 25.33778567 -11.91796875 23.52734375 C-13.06265625 22.92792969 -14.20734375 22.32851562 -15.38671875 21.7109375 C-16.48371094 21.14375 -17.58070313 20.5765625 -18.7109375 19.9921875 C-25.1666554 16.1440733 -25.1666554 16.1440733 -26.30078125 12.02734375 C-26.3627225 6.07066034 -26.3627225 6.07066034 -24.41796875 3.55078125 C-17.70858181 -2.08970826 -8.26753523 -2.41684821 0 0 Z " fill="#F7FBFC" transform="translate(383.69921875,217.7890625)"/>
<path d="M0 0 C2.81000912 1.39721341 5.0812305 2.9562305 7.30078125 5.17578125 C7.48828125 7.73828125 7.48828125 7.73828125 7.30078125 10.17578125 C6.30078125 11.17578125 6.30078125 11.17578125 3.67578125 11.73828125 C-0.3356494 11.06970948 -0.70141147 10.31677352 -3.13671875 7.23828125 C-5.72174969 3.98688678 -6.33168939 3.27820747 -10.51171875 2.11328125 C-13.59656935 1.94545937 -13.59656935 1.94545937 -15.69921875 3.17578125 C-15.70722341 5.08169665 -15.70722341 5.08169665 -14.69921875 7.17578125 C-12.48219486 8.53095939 -10.42510253 9.61597872 -8.07421875 10.67578125 C-6.79373837 11.28534107 -5.51378379 11.89600671 -4.234375 12.5078125 C-3.06777344 13.05824219 -1.90117187 13.60867188 -0.69921875 14.17578125 C7.39757548 18.25741644 7.39757548 18.25741644 9.30078125 22.17578125 C9.80277923 26.12005106 9.71331448 28.38658725 7.86328125 31.92578125 C2.22322517 36.87802561 -4.6532522 37.74736172 -11.98046875 37.53125 C-17.34171386 36.83028261 -21.83011717 34.8799621 -25.82421875 31.23828125 C-26.98142682 28.51057651 -26.60059577 26.95502706 -25.69921875 24.17578125 C-24.69921875 23.17578125 -24.69921875 23.17578125 -22.40625 22.80078125 C-18.56175277 23.33335229 -17.69436557 25.13829367 -15.38671875 28.17578125 C-12.44438352 31.87303714 -12.44438352 31.87303714 -8.33984375 33.83984375 C-5.9158224 33.85615306 -5.9158224 33.85615306 -2.69921875 33.17578125 C-2.36921875 31.85578125 -2.03921875 30.53578125 -1.69921875 29.17578125 C-6.46894013 25.8428108 -11.34763719 23.30680265 -16.6640625 20.90820312 C-20.75158022 18.96240221 -23.26283349 17.00185228 -25.69921875 13.17578125 C-26.51599737 10.3753974 -26.47240322 7.98994532 -25.69921875 5.17578125 C-19.64393398 -2.33794101 -8.71031891 -2.65973559 0 0 Z " fill="#F8FCFD" transform="translate(234.69921875,278.82421875)"/>
<path d="M0 0 C2.4178712 -0.10826289 4.83087556 -0.18739789 7.25 -0.25 C8.27287109 -0.30027344 8.27287109 -0.30027344 9.31640625 -0.3515625 C12.57756049 -0.41488588 14.48687532 -0.43996335 17.01367188 1.7265625 C18.99313681 3.99214479 20.74095329 6.29248809 22.453125 8.765625 C23.071875 9.65507812 23.690625 10.54453125 24.328125 11.4609375 C24.96234375 12.38132813 25.5965625 13.30171875 26.25 14.25 C26.8996875 15.18585938 27.549375 16.12171875 28.21875 17.0859375 C29.81616118 19.3880889 31.4085732 21.69370768 33 24 C33 17.4 33 10.8 33 4 C32.34 3.67 31.68 3.34 31 3 C31 2.01 31 1.02 31 0 C33.64 0 36.28 0 39 0 C39 0.99 39 1.98 39 3 C38.67 3.33 38.34 3.66 38 4 C37.78152358 8.07908332 37.81420957 12.16140373 37.81469727 16.24584961 C37.81252002 18.29367129 37.79439447 20.34094628 37.77539062 22.38867188 C37.77345703 23.67966797 37.77152344 24.97066406 37.76953125 26.30078125 C37.76542236 27.48841064 37.76131348 28.67604004 37.75708008 29.8996582 C37.9887511 32.85643234 38.45016718 34.51343394 40 37 C35.09081173 37.89129355 30.88249039 38.14552694 26 37 C22.20834681 33.44825884 19.76647693 29.46379573 17.18212891 24.98974609 C15.25513338 21.74624888 13.05493991 18.70142024 10.875 15.625 C9.58225495 13.75074334 8.2901634 11.8760347 7 10 C6.94188227 13.74993479 6.90636407 17.49975352 6.875 21.25 C6.85824219 22.31347656 6.84148437 23.37695312 6.82421875 24.47265625 C6.81777344 25.49746094 6.81132812 26.52226562 6.8046875 27.578125 C6.79421387 28.52075195 6.78374023 29.46337891 6.77294922 30.43457031 C6.87374686 33.35852732 6.87374686 33.35852732 9 37 C6.03 37 3.06 37 0 37 C0.66 35.68 1.32 34.36 2 33 C2.27544135 29.80305813 2.27544135 29.80305813 2.1953125 26.265625 C2.18886719 24.97011719 2.18242187 23.67460937 2.17578125 22.33984375 C2.15907193 20.97655981 2.14214206 19.61327856 2.125 18.25 C2.1149634 16.87110015 2.10583873 15.49219335 2.09765625 14.11328125 C2.07408093 10.74201118 2.0411727 7.37109364 2 4 C1.34 3.67 0.68 3.34 0 3 C0 2.01 0 1.02 0 0 Z " fill="#F8FCFC" transform="translate(290,217)"/>
<path d="M0 0 C1.05368774 0.00012085 1.05368774 0.00012085 2.12866211 0.00024414 C4.27087312 -0.00194055 6.41256783 -0.02008824 8.5546875 -0.0390625 C9.91080552 -0.04199671 11.266926 -0.04398132 12.62304688 -0.04492188 C13.86304443 -0.04903076 15.10304199 -0.05313965 16.38061523 -0.05737305 C19.34570312 0.18554688 19.34570312 0.18554688 21.34570312 2.18554688 C21.47070312 5.81054688 21.47070312 5.81054688 21.34570312 9.18554688 C19.47070312 8.87304688 19.47070312 8.87304688 17.34570312 8.18554688 C16.68570312 7.19554687 16.02570313 6.20554687 15.34570312 5.18554688 C12.69003033 4.60205935 12.69003033 4.60205935 9.72070312 4.49804688 C7.94695312 4.39492188 6.17320312 4.29179687 4.34570312 4.18554688 C4.34570312 8.14554687 4.34570312 12.10554688 4.34570312 16.18554688 C7.7780076 15.92161186 7.7780076 15.92161186 11.34570312 15.18554688 C12.00570313 14.19554687 12.66570312 13.20554687 13.34570312 12.18554688 C14.33570313 12.51554687 15.32570313 12.84554688 16.34570312 13.18554688 C16.47070312 20.81054688 16.47070312 20.81054688 15.34570312 24.18554688 C14.35570312 23.85554688 13.36570312 23.52554687 12.34570312 23.18554688 C12.01570313 22.52554687 11.68570312 21.86554688 11.34570312 21.18554688 C9.02413715 20.7782546 6.68882443 20.44116011 4.34570312 20.18554688 C4.34570312 24.80554688 4.34570312 29.42554688 4.34570312 34.18554688 C11.73665467 33.8859137 15.06810136 33.3312086 20.34570312 28.18554688 C21.00570312 28.18554688 21.66570312 28.18554688 22.34570312 28.18554688 C22.01570313 31.15554688 21.68570313 34.12554687 21.34570312 37.18554688 C10.45570313 37.18554688 -0.43429687 37.18554688 -11.65429688 37.18554688 C-10.99429687 35.86554688 -10.33429688 34.54554688 -9.65429688 33.18554688 C-9.34662749 30.03890594 -9.34662749 30.03890594 -9.38867188 26.55664062 C-9.38609375 25.27466797 -9.38351562 23.99269531 -9.38085938 22.671875 C-9.38504883 22.00744385 -9.38923828 21.3430127 -9.39355469 20.65844727 C-9.40428043 18.62616243 -9.39363315 16.59475784 -9.38085938 14.5625 C-9.3834375 13.28181641 -9.38601563 12.00113281 -9.38867188 10.68164062 C-9.39092773 9.50786865 -9.39318359 8.33409668 -9.39550781 7.12475586 C-9.43422154 3.99610928 -9.43422154 3.99610928 -11.65429688 1.18554688 C-9.2241365 -1.2446135 -3.39654557 0.01232133 0 0 Z " fill="#EFF8FA" transform="translate(443.654296875,277.814453125)"/>
<path d="M0 0 C3.17996985 2.0047636 4.98258095 3.55753924 6.875 6.8125 C7.375 9.9375 7.375 9.9375 6.875 12.8125 C5.3125 14.75 5.3125 14.75 2.875 15.8125 C-0.75 15.6875 -0.75 15.6875 -4.125 14.8125 C-6.06837637 11.89743545 -6.40174667 10.98278308 -6.6875 7.6875 C-6.69186899 4.03786034 -6.69186899 4.03786034 -8.125 2.8125 C-10.45797433 2.77157063 -12.79205225 2.77008277 -15.125 2.8125 C-18.20380018 9.6324717 -18.00487346 16.6896445 -15.875 23.8125 C-14.91146159 26.30610173 -14.11911703 27.8194335 -12.375 29.875 C-8.25251303 31.59270291 -3.26733122 31.50395191 0.875 29.8125 C1.86699003 27.75520846 1.86699003 27.75520846 2.375 25.3125 C2.96875 22.84375 2.96875 22.84375 3.875 20.8125 C5.96875 20.03125 5.96875 20.03125 7.875 19.8125 C8.38037432 25.11893041 7.18155751 27.67930312 3.875 31.8125 C-0.90071078 36.26983006 -6.55272854 37.22608668 -12.88671875 37.06640625 C-18.4667877 36.43341414 -23.20471058 33.73278942 -27.125 29.8125 C-30.94950902 23.6141578 -30.96930838 16.94323487 -30.125 9.8125 C-29.09975531 7.15389981 -28.10233206 5.95931767 -26.125 3.8125 C-25.650625 3.235 -25.17625 2.6575 -24.6875 2.0625 C-18.41240488 -2.9575761 -7.2514297 -2.77446006 0 0 Z " fill="#F4FAFB" transform="translate(321.125,279.1875)"/>
<path d="M0 0 C10.23 0 20.46 0 31 0 C32.88343932 3.76687864 33.22057835 5.02958963 33 9 C31.0625 8.6875 31.0625 8.6875 29 8 C28.67 7.01 28.34 6.02 28 5 C23.71 4.67 19.42 4.34 15 4 C15 7.96 15 11.92 15 16 C19.55737263 15.56179109 22.57653445 15.14958831 26 12 C27 13 27 13 27.09765625 15.28515625 C27.08605469 16.20167969 27.07445312 17.11820313 27.0625 18.0625 C27.05347656 18.98160156 27.04445313 19.90070313 27.03515625 20.84765625 C27.02355469 21.55792969 27.01195312 22.26820313 27 23 C26.01 23.33 25.02 23.66 24 24 C23.67 22.68 23.34 21.36 23 20 C20.36 20 17.72 20 15 20 C15.33 24.29 15.66 28.58 16 33 C21.52449524 33.34482869 21.52449524 33.34482869 27 33 C29.5404226 30.66169042 29.5404226 30.66169042 31 28 C31.99 28 32.98 28 34 28 C33.125 35.875 33.125 35.875 32 37 C29.6243148 37.0883967 27.27791326 37.11530305 24.90234375 37.09765625 C23.83905602 37.09553383 23.83905602 37.09553383 22.75428772 37.09336853 C20.48198288 37.08775443 18.20977525 37.07519963 15.9375 37.0625 C14.40039204 37.05748681 12.86328255 37.05292359 11.32617188 37.04882812 C7.55074358 37.03778042 3.77538829 37.02050641 0 37 C0.32145996 36.47889648 0.64291992 35.95779297 0.97412109 35.42089844 C2.30257361 32.28597813 2.3245499 29.66710392 2.4140625 26.265625 C2.47207031 24.32236328 2.47207031 24.32236328 2.53125 22.33984375 C2.56270267 20.97656716 2.59395007 19.61328582 2.625 18.25 C2.66320469 16.87106972 2.70225787 15.49216266 2.7421875 14.11328125 C2.83648004 10.74232282 2.9220822 7.37137022 3 4 C2.01 3.67 1.02 3.34 0 3 C0 2.01 0 1.02 0 0 Z " fill="#F3FAFB" transform="translate(420,217)"/>
<path d="M0 0 C4.37821909 -0.0740719 8.75610782 -0.12856375 13.13476562 -0.16479492 C14.62473909 -0.179896 16.11466801 -0.20037858 17.60449219 -0.22631836 C19.7442523 -0.26264584 21.88342566 -0.27971221 24.0234375 -0.29296875 C25.31169434 -0.3086792 26.59995117 -0.32438965 27.92724609 -0.34057617 C28.94125488 -0.22818604 29.95526367 -0.1157959 31 0 C33.29013653 3.4352048 33.17842973 4.985331 33 9 C31.125 8.6875 31.125 8.6875 29 8 C28.34 7.01 27.68 6.02 27 5 C24.11404054 4.41518879 24.11404054 4.41518879 20.875 4.3125 C18.93625 4.209375 16.9975 4.10625 15 4 C15 8.29 15 12.58 15 17 C16.27875 16.731875 17.5575 16.46375 18.875 16.1875 C19.59429687 16.03667969 20.31359375 15.88585937 21.0546875 15.73046875 C23.37046549 15.07691162 23.37046549 15.07691162 25 12 C25.66 12 26.32 12 27 12 C28.52491998 15.04983996 28.23562548 17.6423369 28 21 C26.5 22.9375 26.5 22.9375 25 24 C24.46375 23.360625 23.9275 22.72125 23.375 22.0625 C20.75167859 19.4214567 20.75167859 19.4214567 15 19 C15.33 23.62 15.66 28.24 16 33 C23.08790751 33.77607687 23.08790751 33.77607687 28.9375 30.5 C29.618125 29.675 30.29875 28.85 31 28 C31.99 28 32.98 28 34 28 C34.25 33.625 34.25 33.625 32 37 C29.51659097 37.26727014 27.28527932 37.34866334 24.8046875 37.29296875 C24.09724396 37.28872391 23.38980042 37.28447906 22.66091919 37.28010559 C20.39856095 37.26329547 18.13708952 37.22564128 15.875 37.1875 C14.34246077 37.17245607 12.8099076 37.15876716 11.27734375 37.14648438 C7.51788682 37.11338462 3.75909382 37.06158825 0 37 C0.32597168 36.47889648 0.65194336 35.95779297 0.98779297 35.42089844 C2.31284149 32.25177611 2.22541216 29.69698645 2.1953125 26.265625 C2.18886719 24.97011719 2.18242187 23.67460937 2.17578125 22.33984375 C2.15907193 20.97655981 2.14214206 19.61327856 2.125 18.25 C2.1149634 16.87110015 2.10583873 15.49219335 2.09765625 14.11328125 C2.07408093 10.74201118 2.0411727 7.37109364 2 4 C1.34 3.67 0.68 3.34 0 3 C0 2.01 0 1.02 0 0 Z " fill="#F4FAFB" transform="translate(355,278)"/>
<path d="M0 0 C0.66 0 1.32 0 2 0 C2 2 2 4 2 6 C2.66 6.33 3.32 6.66 4 7 C3.34 7.99 2.68 8.98 2 10 C2.66 10.66 3.32 11.32 4 12 C1.71180854 13.50554634 -0.58021169 15.00457043 -2.875 16.5 C-3.52597656 16.92925781 -4.17695312 17.35851562 -4.84765625 17.80078125 C-9.7734375 21 -9.7734375 21 -12 21 C-12 21.66 -12 22.32 -12 23 C-11.05125 22.505 -10.1025 22.01 -9.125 21.5 C-6 20 -6 20 -4 20 C-4.495 21.485 -4.495 21.485 -5 23 C-4.34 23.66 -3.68 24.32 -3 25 C-3.66 25 -4.32 25 -5 25 C-5 25.66 -5 26.32 -5 27 C-3.35 27 -1.7 27 0 27 C-4.6167388 31.6167388 -11.79634498 33.41608808 -18 35 C-17.34 35 -16.68 35 -16 35 C-16 35.66 -16 36.32 -16 37 C-21.94 39.475 -21.94 39.475 -28 42 C-27.34 42.33 -26.68 42.66 -26 43 C-27.59915881 43.69906942 -29.20455045 44.38389468 -30.8125 45.0625 C-31.70582031 45.44535156 -32.59914063 45.82820313 -33.51953125 46.22265625 C-36 47 -36 47 -39 46 C-39 44 -39 44 -37 42 C-33 40.66666667 -29 39.33333333 -25 38 C-27.475 38.495 -27.475 38.495 -30 39 C-28.33333333 37.33333333 -26.66666667 35.66666667 -25 34 C-25 33.34 -25 32.68 -25 32 C-25.928125 32.2475 -25.928125 32.2475 -26.875 32.5 C-29.87482646 33.20584152 -30.9906231 33.00312563 -34 32 C-34.99 32 -35.98 32 -37 32 C-36.67 31.01 -36.34 30.02 -36 29 C-35.01 28.67 -34.02 28.34 -33 28 C-33.66 27.34 -34.32 26.68 -35 26 C-32.35261084 24.5393715 -31.10551666 24 -28 24 C-28.33 23.01 -28.66 22.02 -29 21 C-26.03 18.36 -23.06 15.72 -20 13 C-19.34 13.33 -18.68 13.66 -18 14 C-18 14.33 -18 14.66 -18 15 C-15.18680158 12.68834857 -12.37455938 10.37553685 -9.5625 8.0625 C-8.76005859 7.40314453 -7.95761719 6.74378906 -7.13085938 6.06445312 C-6.36708984 5.43603516 -5.60332031 4.80761719 -4.81640625 4.16015625 C-4.10943604 3.57886963 -3.40246582 2.99758301 -2.67407227 2.39868164 C-1.07621025 1.10596545 -1.07621025 1.10596545 0 0 Z " fill="#43B2C6" transform="translate(94,284)"/>
<path d="M0 0 C1.58206057 0.00667536 3.16410534 0.0186375 4.74609375 0.03515625 C5.55240234 0.03966797 6.35871094 0.04417969 7.18945312 0.04882812 C9.18753131 0.06065107 11.18557158 0.07858711 13.18359375 0.09765625 C13.18359375 1.08765625 13.18359375 2.07765625 13.18359375 3.09765625 C12.52359375 3.09765625 11.86359375 3.09765625 11.18359375 3.09765625 C11.26444613 7.3484368 11.37729447 11.59778025 11.49609375 15.84765625 C11.51865234 17.05421875 11.54121094 18.26078125 11.56445312 19.50390625 C11.61762695 21.24414062 11.61762695 21.24414062 11.671875 23.01953125 C11.69805908 24.0878418 11.72424316 25.15615234 11.7512207 26.25683594 C12.23127598 29.41094276 12.98302726 30.82156696 15.18359375 33.09765625 C17.31178364 33.76428316 17.31178364 33.76428316 19.62109375 33.66015625 C20.38292969 33.68207031 21.14476562 33.70398438 21.9296875 33.7265625 C24.33738282 33.20832779 24.33738282 33.20832779 26.453125 31.33203125 C29.1486109 26.29396731 28.60416767 21.39769435 28.43359375 15.78515625 C28.41554688 14.66302734 28.3975 13.54089844 28.37890625 12.38476562 C28.33187231 9.62152178 28.26615692 6.86002927 28.18359375 4.09765625 C27.52359375 3.76765625 26.86359375 3.43765625 26.18359375 3.09765625 C26.51359375 2.10765625 26.84359375 1.11765625 27.18359375 0.09765625 C29.49359375 0.09765625 31.80359375 0.09765625 34.18359375 0.09765625 C34.18359375 1.08765625 34.18359375 2.07765625 34.18359375 3.09765625 C33.85359375 3.42765625 33.52359375 3.75765625 33.18359375 4.09765625 C33.08636934 5.95377576 33.05155966 7.81323076 33.04296875 9.671875 C33.02363281 10.81462891 33.00429688 11.95738281 32.984375 13.13476562 C32.95079483 15.54866339 32.93231298 17.96282323 32.9296875 20.37695312 C32.71953033 30.23774876 32.71953033 30.23774876 29.94921875 33.8046875 C24.08865596 38.66365693 18.54523759 38.75752348 11.18359375 38.09765625 C6.86311013 37.17901522 3.84543138 35.79343427 0.74609375 32.53515625 C-1.55111388 28.95151235 -1.95846783 27.00071392 -2.0625 22.7578125 C-2.09537109 21.69498047 -2.12824219 20.63214844 -2.16210938 19.53710938 C-2.22319839 17.28981356 -2.28050377 15.04241163 -2.33398438 12.79492188 C-2.36814453 11.73080078 -2.40230469 10.66667969 -2.4375 9.5703125 C-2.47508423 8.10476929 -2.47508423 8.10476929 -2.51342773 6.60961914 C-2.65445069 3.85192625 -2.65445069 3.85192625 -4.81640625 1.09765625 C-3.81640625 0.09765625 -3.81640625 0.09765625 0 0 Z " fill="#F1F9FA" transform="translate(252.81640625,216.90234375)"/>
<path d="M0 0 C1.08946678 -0.00855011 1.08946678 -0.00855011 2.20094299 -0.01727295 C3.74014829 -0.026735 5.27937395 -0.0332617 6.81860352 -0.03710938 C9.17825486 -0.04682087 11.53703749 -0.07783357 13.89648438 -0.109375 C15.38931772 -0.1159042 16.88215732 -0.121155 18.375 -0.125 C19.08337509 -0.1373468 19.79175018 -0.1496936 20.52159119 -0.16241455 C22.51342773 -0.15332031 22.51342773 -0.15332031 25.75390625 0.203125 C28.04404278 3.6383298 27.93233598 5.188456 27.75390625 9.203125 C25.87890625 8.890625 25.87890625 8.890625 23.75390625 8.203125 C23.09390625 7.213125 22.43390625 6.223125 21.75390625 5.203125 C18.68834027 4.46969072 18.68834027 4.46969072 15.75390625 4.203125 C15.87223827 8.42084339 15.99649227 12.63833323 16.1262207 16.85571289 C16.16951418 18.29023503 16.21119324 19.72480684 16.2512207 21.15942383 C16.30905892 23.2223202 16.37271378 25.28496783 16.4375 27.34765625 C16.47415771 28.58878174 16.51081543 29.82990723 16.54858398 31.10864258 C16.62534746 34.23865847 16.62534746 34.23865847 17.75390625 37.203125 C12.14390625 37.203125 6.53390625 37.203125 0.75390625 37.203125 C1.08390625 35.883125 1.41390625 34.563125 1.75390625 33.203125 C1.90165486 30.96071923 2.00134993 28.71495957 2.0703125 26.46875 C2.11220703 25.17324219 2.15410156 23.87773437 2.19726562 22.54296875 C2.23707296 21.17969024 2.27678531 19.81640894 2.31640625 18.453125 C2.35962899 17.07420625 2.40324446 15.69529974 2.44726562 14.31640625 C2.55334583 10.9454131 2.65540475 7.57434674 2.75390625 4.203125 C-2.6539676 5.30098925 -2.6539676 5.30098925 -6.24609375 9.203125 C-7.23609375 9.203125 -8.22609375 9.203125 -9.24609375 9.203125 C-8.22899419 0.04922896 -8.22899419 0.04922896 0 0 Z " fill="#EFF8FA" transform="translate(402.24609375,277.796875)"/>
<path d="M0 0 C1.38594529 0.00031696 2.77191535 0.01163319 4.15771484 0.03173828 C4.88735443 0.03456818 5.61699402 0.03739807 6.3687439 0.04031372 C8.70221262 0.05152076 11.03529937 0.07662568 13.36865234 0.10205078 C14.94937597 0.11207993 16.53010561 0.1212059 18.11083984 0.12939453 C21.98859149 0.15146173 25.86605712 0.18599463 29.74365234 0.22705078 C31.48930346 3.44344732 31.94808934 5.54718482 31.74365234 9.22705078 C28.89542232 8.82016078 27.84951485 8.3363282 25.80615234 6.22705078 C23.40307898 3.89679782 21.97546363 3.73817744 18.74365234 3.22705078 C18.83740036 7.42665682 18.94354039 11.6257139 19.06103516 15.82470703 C19.09925259 17.25235477 19.13411806 18.68009641 19.16552734 20.10791016 C19.21133635 22.16358946 19.26930215 24.21862632 19.32958984 26.27392578 C19.37672119 28.12775879 19.37672119 28.12775879 19.42480469 30.01904297 C19.577082 33.48817444 19.577082 33.48817444 21.74365234 37.22705078 C15.80365234 37.22705078 9.86365234 37.22705078 3.74365234 37.22705078 C4.40365234 35.90705078 5.06365234 34.58705078 5.74365234 33.22705078 C6.11059855 29.93484526 6.11059855 29.93484526 6.15771484 26.27392578 C6.17708099 25.61370422 6.19644714 24.95348267 6.21640015 24.27325439 C6.27594584 22.17464925 6.32247956 20.0759885 6.36865234 17.97705078 C6.40685529 16.54994418 6.44590837 15.12286006 6.48583984 13.69580078 C6.58162565 10.20642387 6.66574876 6.71687792 6.74365234 3.22705078 C1.4295374 5.15096727 1.4295374 5.15096727 -2.25634766 9.22705078 C-3.24634766 9.22705078 -4.23634766 9.22705078 -5.25634766 9.22705078 C-5.38134766 5.85205078 -5.38134766 5.85205078 -5.25634766 2.22705078 C-3.25634766 0.22705078 -3.25634766 0.22705078 0 0 Z " fill="#F6FBFC" transform="translate(213.25634765625,216.77294921875)"/>
<path d="M0 0 C1.58206057 0.00667536 3.16410534 0.0186375 4.74609375 0.03515625 C5.55240234 0.03966797 6.35871094 0.04417969 7.18945312 0.04882812 C9.18753131 0.06065107 11.18557158 0.07858711 13.18359375 0.09765625 C13.18359375 1.08765625 13.18359375 2.07765625 13.18359375 3.09765625 C12.52359375 3.09765625 11.86359375 3.09765625 11.18359375 3.09765625 C11.30190802 7.45778445 11.42616088 11.81769076 11.5559082 16.17749023 C11.59920705 17.6605164 11.64088574 19.14359079 11.6809082 20.62670898 C11.73873333 22.75909964 11.80239207 24.89124867 11.8671875 27.0234375 C11.90384521 28.30645752 11.94050293 29.58947754 11.97827148 30.91137695 C12.04920609 34.11877176 12.04920609 34.11877176 13.18359375 37.09765625 C7.24359375 37.09765625 1.30359375 37.09765625 -4.81640625 37.09765625 C-4.15640625 35.77765625 -3.49640625 34.45765625 -2.81640625 33.09765625 C-2.50873686 29.95101532 -2.50873686 29.95101532 -2.55078125 26.46875 C-2.54820312 25.18677734 -2.545625 23.90480469 -2.54296875 22.58398438 C-2.5471582 21.91955322 -2.55134766 21.25512207 -2.55566406 20.57055664 C-2.56638981 18.5382718 -2.55574252 16.50686721 -2.54296875 14.47460938 C-2.54554688 13.19392578 -2.548125 11.91324219 -2.55078125 10.59375 C-2.55303711 9.41997803 -2.55529297 8.24620605 -2.55761719 7.03686523 C-2.59633092 3.90821866 -2.59633092 3.90821866 -4.81640625 1.09765625 C-3.81640625 0.09765625 -3.81640625 0.09765625 0 0 Z " fill="#F3FAFB" transform="translate(337.81640625,277.90234375)"/>
<path d="M0 0 C5.61 0 11.22 0 17 0 C17 0.99 17 1.98 17 3 C16.67 3.33 16.34 3.66 16 4 C15.78152358 8.07908332 15.81420957 12.16140373 15.81469727 16.24584961 C15.81252002 18.29367129 15.79439447 20.34094628 15.77539062 22.38867188 C15.77345703 23.67966797 15.77152344 24.97066406 15.76953125 26.30078125 C15.76336792 28.08222534 15.76336792 28.08222534 15.75708008 29.8996582 C15.82642807 33.27949039 15.82642807 33.27949039 18 37 C12.06 37 6.12 37 0 37 C0.66 35.68 1.32 34.36 2 33 C2.27544135 29.80305813 2.27544135 29.80305813 2.1953125 26.265625 C2.18886719 24.97011719 2.18242187 23.67460937 2.17578125 22.33984375 C2.15907193 20.97655981 2.14214206 19.61327856 2.125 18.25 C2.1149634 16.87110015 2.10583873 15.49219335 2.09765625 14.11328125 C2.07408093 10.74201118 2.0411727 7.37109364 2 4 C1.34 3.67 0.68 3.34 0 3 C0 2.01 0 1.02 0 0 Z " fill="#FAFDFD" transform="translate(398,217)"/>
<path d="M0 0 C5.61 0 11.22 0 17 0 C17 0.99 17 1.98 17 3 C16.67 3.33 16.34 3.66 16 4 C15.78152358 8.07908332 15.81420957 12.16140373 15.81469727 16.24584961 C15.81252002 18.29367129 15.79439447 20.34094628 15.77539062 22.38867188 C15.77345703 23.67966797 15.77152344 24.97066406 15.76953125 26.30078125 C15.76336792 28.08222534 15.76336792 28.08222534 15.75708008 29.8996582 C15.82642807 33.27949039 15.82642807 33.27949039 18 37 C12.06 37 6.12 37 0 37 C0.66 35.68 1.32 34.36 2 33 C2.27544135 29.80305813 2.27544135 29.80305813 2.1953125 26.265625 C2.18886719 24.97011719 2.18242187 23.67460937 2.17578125 22.33984375 C2.15907193 20.97655981 2.14214206 19.61327856 2.125 18.25 C2.1149634 16.87110015 2.10583873 15.49219335 2.09765625 14.11328125 C2.07408093 10.74201118 2.0411727 7.37109364 2 4 C1.34 3.67 0.68 3.34 0 3 C0 2.01 0 1.02 0 0 Z " fill="#FAFDFD" transform="translate(334,217)"/>
<path d="M0 0 C0.99 0.99 1.98 1.98 3 3 C2.4740625 4.175625 2.4740625 4.175625 1.9375 5.375 C1.628125 6.24125 1.31875 7.1075 1 8 C1.33 8.66 1.66 9.32 2 10 C1.319375 10.7425 0.63875 11.485 -0.0625 12.25 C-2.28353676 14.75949064 -2.28353676 14.75949064 -1.75 17.3125 C-1.5025 17.869375 -1.255 18.42625 -1 19 C-1.99 19 -2.98 19 -4 19 C-3.04134491 21.33075929 -3.04134491 21.33075929 0 23 C-1.65 23 -3.3 23 -5 23 C-5 23.66 -5 24.32 -5 25 C45.49 25 95.98 25 148 25 C148 25.33 148 25.66 148 26 C91.24 26 34.48 26 -24 26 C-21.99989392 21.99978784 -20.14151829 19.91000659 -16.9921875 16.796875 C-16.50670441 16.3142218 -16.02122131 15.8315686 -15.52102661 15.33428955 C-13.97700134 13.80141438 -12.42615176 12.27565996 -10.875 10.75 C-9.82375991 9.70879639 -8.77297343 8.66713459 -7.72265625 7.625 C-5.15366996 5.07800536 -2.57851839 2.53734823 0 0 Z " fill="#90D2DD" transform="translate(46,317)"/>
<path d="M0 0 C3.65959329 0.91489832 4.56414881 2.42083251 6.5 5.625 C9.0449137 12.62351266 9.34473931 20.24942668 8.5 27.625 C7.16796875 30.01953125 7.16796875 30.01953125 5.5 31.625 C2.5 32.0625 2.5 32.0625 -0.5 31.625 C-4.65531159 28.33153081 -5.52352216 23.63274784 -6.5 18.625 C-7.60209371 7.30229919 -7.60209371 7.30229919 -4.62890625 2.77734375 C-2.5 0.625 -2.5 0.625 0 0 Z " fill="#0799B4" transform="translate(266.5,280.375)"/>
<path d="M0 0 C0 0.99 0 1.98 0 3 C0.66 3.33 1.32 3.66 2 4 C1.01 5.485 1.01 5.485 0 7 C0.66 7.66 1.32 8.32 2 9 C-0.28819146 10.50554634 -2.58021169 12.00457043 -4.875 13.5 C-5.52597656 13.92925781 -6.17695312 14.35851562 -6.84765625 14.80078125 C-11.7734375 18 -11.7734375 18 -14 18 C-14 18.66 -14 19.32 -14 20 C-13.01 20.33 -12.02 20.66 -11 21 C-16.2734375 24.22265625 -16.2734375 24.22265625 -18 25 C-18.66 24.67 -19.32 24.34 -20 24 C-19.01 23.01 -18.02 22.02 -17 21 C-17.66 20.67 -18.32 20.34 -19 20 C-18.01 19.01 -17.02 18.02 -16 17 C-17.98 18.32 -19.96 19.64 -22 21 C-22.66 20.67 -23.32 20.34 -24 20 C-23.65120368 16.74456771 -22.97866739 15.98126893 -20.4375 13.75 C-19.633125 13.1725 -18.82875 12.595 -18 12 C-17.34 12.33 -16.68 12.66 -16 13 C-16 13.33 -16 13.66 -16 14 C-13.12785394 11.3553643 -13.12785394 11.3553643 -11.1171875 8.0625 C-9.76731794 5.57043311 -8.28186847 4.41106602 -6 2.75 C-5.29875 2.22921875 -4.5975 1.7084375 -3.875 1.171875 C-2 0 -2 0 0 0 Z " fill="#3AAEC3" transform="translate(96,287)"/>
<path d="M0 0 C0.66 0 1.32 0 2 0 C2 0.99 2 1.98 2 3 C-0.68701266 5.1478128 -3.52687026 6.97506955 -6.3984375 8.8671875 C-9.21543911 11.17662125 -9.83934843 12.63522646 -11 16 C-13.625 17.8125 -13.625 17.8125 -16 19 C-16 18.01 -16 17.02 -16 16 C-17.65 17.32 -19.3 18.64 -21 20 C-20.67 20.99 -20.34 21.98 -20 23 C-17.69 21.68 -15.38 20.36 -13 19 C-13.33 19.99 -13.66 20.98 -14 22 C-14 22.33 -14 22.66 -14 23 C-14.33 23.99 -14.66 24.98 -15 26 C-17.5625 27.1875 -17.5625 27.1875 -20 28 C-20 27.34 -20 26.68 -20 26 C-20.680625 26.53625 -21.36125 27.0725 -22.0625 27.625 C-25 29 -25 29 -28.8125 28.1875 C-29.864375 27.795625 -30.91625 27.40375 -32 27 C-31.67 26.34 -31.34 25.68 -31 25 C-29.68 25 -28.36 25 -27 25 C-27.66 23.68 -28.32 22.36 -29 21 C-26.03 18.36 -23.06 15.72 -20 13 C-19.34 13.33 -18.68 13.66 -18 14 C-18 14.33 -18 14.66 -18 15 C-15.18680158 12.68834857 -12.37455938 10.37553685 -9.5625 8.0625 C-8.76005859 7.40314453 -7.95761719 6.74378906 -7.13085938 6.06445312 C-6.36708984 5.43603516 -5.60332031 4.80761719 -4.81640625 4.16015625 C-4.10943604 3.57886963 -3.40246582 2.99758301 -2.67407227 2.39868164 C-1.07621025 1.10596545 -1.07621025 1.10596545 0 0 Z " fill="#3FB0C5" transform="translate(94,284)"/>
<path d="M0 0 C0 3.10551666 -0.5393715 4.35261084 -2 7 C-2.66 7 -3.32 7 -4 7 C-4 10.63 -4 14.26 -4 18 C-8.95 18 -13.9 18 -19 18 C-16.75876485 13.5175297 -14.13274209 10.80092633 -10.625 7.3125 C-10.0475 6.71888672 -9.47 6.12527344 -8.875 5.51367188 C-8.02808594 4.66579102 -8.02808594 4.66579102 -7.1640625 3.80078125 C-6.65311035 3.28684814 -6.1421582 2.77291504 -5.61572266 2.2434082 C-3.77059027 0.82345365 -2.27266055 0.40976852 0 0 Z " fill="#D1ECF1" transform="translate(42,324)"/>
<path d="M0 0 C4.68450554 0.6403281 6.54895735 4.54113806 9.3359375 8.0859375 C12.14634153 10.78558669 13.8888704 11.11235886 17.71484375 11.37109375 C18.04484375 12.36109375 18.37484375 13.35109375 18.71484375 14.37109375 C11.17414058 14.87850555 5.23052154 14.43989684 -1.28515625 10.37109375 C-3.41015625 8.43359375 -3.41015625 8.43359375 -4.28515625 6.37109375 C-3.74913203 0.60883341 -3.74913203 0.60883341 0 0 Z " fill="#EDF7F9" transform="translate(212.28515625,301.62890625)"/>
<path d="M0 0 C3.92366878 0.69754112 5.22376551 2.77172554 7.67578125 5.7734375 C8.8125 7.5 8.8125 7.5 8.8125 9.5 C9.45058594 9.60957031 10.08867187 9.71914062 10.74609375 9.83203125 C11.57238281 9.99058594 12.39867187 10.14914063 13.25 10.3125 C14.07371094 10.46332031 14.89742188 10.61414063 15.74609375 10.76953125 C16.42800781 11.01058594 17.10992187 11.25164062 17.8125 11.5 C18.1425 12.49 18.4725 13.48 18.8125 14.5 C11.74961417 14.85054764 6.18356933 14.74142124 -0.1875 11.5 C-2.75 9.125 -2.75 9.125 -4.1875 6.5 C-3.9344552 2.78867633 -3.77193565 0.86215672 0 0 Z " fill="#EDF7F9" transform="translate(361.1875,240.5)"/>
<path d="M0 0 C-1.98 0.99 -1.98 0.99 -4 2 C-2.14977843 4.28055323 -2.14977843 4.28055323 0.70556641 4.22705078 C1.82624512 4.21657715 2.94692383 4.20610352 4.1015625 4.1953125 C5.31328125 4.18886719 6.525 4.18242187 7.7734375 4.17578125 C9.67996094 4.15064453 9.67996094 4.15064453 11.625 4.125 C13.543125 4.11146484 13.543125 4.11146484 15.5 4.09765625 C18.66685167 4.07402303 21.83333424 4.04107629 25 4 C25 4.33 25 4.66 25 5 C20.14416422 5.31225642 15.28786261 5.61507751 10.4309082 5.90942383 C8.78101009 6.01071494 7.13126408 6.11451781 5.48168945 6.22094727 C3.10143666 6.37407135 0.72077104 6.51795371 -1.66015625 6.66015625 C-2.38960953 6.70906509 -3.11906281 6.75797394 -3.87062073 6.80836487 C-8.41252489 7.06858816 -12.51603863 6.78462893 -17 6 C-16.67 5.34 -16.34 4.68 -16 4 C-16.66 3.34 -17.32 2.68 -18 2 C-17 0 -17 0 -14.0625 -1.25 C-9.21540765 -2.56275418 -4.74873852 -1.24212476 0 0 Z " fill="#62BFCF" transform="translate(66,334)"/>
<path d="M0 0 C0.66 0.33 1.32 0.66 2 1 C-0.18517099 3.40575607 -2.25919671 4.79535581 -5.1875 6.1875 C-5.90292969 6.53167969 -6.61835937 6.87585938 -7.35546875 7.23046875 C-7.89816406 7.48441406 -8.44085938 7.73835938 -9 8 C-8.34 8 -7.68 8 -7 8 C-7 8.66 -7 9.32 -7 10 C-10.96 11.65 -14.92 13.3 -19 15 C-18.34 15.33 -17.68 15.66 -17 16 C-18.59915881 16.69906942 -20.20455045 17.38389468 -21.8125 18.0625 C-22.70582031 18.44535156 -23.59914063 18.82820313 -24.51953125 19.22265625 C-27 20 -27 20 -30 19 C-30 17 -30 17 -28 15 C-24 13.66666667 -20 12.33333333 -16 11 C-17.65 11.33 -19.3 11.66 -21 12 C-17.59038441 8.27016652 -13.41015328 6.46709318 -8.9375 4.25 C-8.10927734 3.82589844 -7.28105469 3.40179688 -6.42773438 2.96484375 C-5.23954102 2.37123047 -5.23954102 2.37123047 -4.02734375 1.765625 C-2.94054321 1.22083496 -2.94054321 1.22083496 -1.83178711 0.66503906 C-1.22729736 0.44557617 -0.62280762 0.22611328 0 0 Z " fill="#0C9CB5" transform="translate(85,311)"/>
<path d="M0 0 C0.721875 0.350625 1.44375 0.70125 2.1875 1.0625 C5.3902317 2.13007723 6.77355479 1.72595017 10 1 C12.8125 1.4375 12.8125 1.4375 15 2 C15 2.66 15 3.32 15 4 C15.66 4.33 16.32 4.66 17 5 C16.01 5.66 15.02 6.32 14 7 C14.99 7.33 15.98 7.66 17 8 C8.96498906 12.23632385 8.96498906 12.23632385 4.9375 11.25 C4.298125 10.8375 3.65875 10.425 3 10 C3.33 9.01 3.66 8.02 4 7 C2.35 6.01 0.7 5.02 -1 4 C-0.67 2.68 -0.34 1.36 0 0 Z " fill="#6AC2D2" transform="translate(54,314)"/>
<path d="M0 0 C0.99 0.99 1.98 1.98 3 3 C2.649375 3.78375 2.29875 4.5675 1.9375 5.375 C1.628125 6.24125 1.31875 7.1075 1 8 C1.33 8.66 1.66 9.32 2 10 C1.319375 10.7425 0.63875 11.485 -0.0625 12.25 C-2.28353676 14.75949064 -2.28353676 14.75949064 -1.75 17.3125 C-1.5025 17.869375 -1.255 18.42625 -1 19 C-1.99 19 -2.98 19 -4 19 C-3.67 19.66 -3.34 20.32 -3 21 C-4.98 21.33 -6.96 21.66 -9 22 C-8.25 14.25 -8.25 14.25 -6 12 C-5.30251417 10.68252676 -4.63040043 9.35085807 -4 8 C-4.99 7.67 -5.98 7.34 -7 7 C-4.69 4.69 -2.38 2.38 0 0 Z " fill="#A2D9E3" transform="translate(46,317)"/>
<path d="M0 0 C-1.20381448 2.49361571 -2.45428722 4.68143083 -4 7 C-2.02 5.35 -0.04 3.7 2 2 C2.66 2.33 3.32 2.66 4 3 C1.03 5.97 -1.94 8.94 -5 12 C-4.01 12.33 -3.02 12.66 -2 13 C-7.75 18 -7.75 18 -10 18 C-10 17.01 -10 16.02 -10 15 C-10.66 15 -11.32 15 -12 15 C-12.33 14.34 -12.66 13.68 -13 13 C-13.99 13 -14.98 13 -16 13 C-13.71584679 10.82529395 -11.42149089 8.66166755 -9.125 6.5 C-8.47402344 5.87996094 -7.82304688 5.25992187 -7.15234375 4.62109375 C-6.21455078 3.74130859 -6.21455078 3.74130859 -5.2578125 2.84375 C-4.6817627 2.29912109 -4.10571289 1.75449219 -3.51220703 1.19335938 C-2 0 -2 0 0 0 Z " fill="#5FBDCE" transform="translate(106,269)"/>
<path d="M0 0 C0.33 0.66 0.66 1.32 1 2 C2.98 1.67 4.96 1.34 7 1 C6.01 1.99 5.02 2.98 4 4 C4.56847656 3.86722656 5.13695313 3.73445313 5.72265625 3.59765625 C10.47151097 2.5115242 15.16780324 1.61687618 20 1 C13.88672182 5.07551878 6.86967973 6.33422004 -0.2890625 7.52734375 C-2.8462498 7.97319341 -5.35016011 8.52524567 -7.875 9.125 C-10.98107164 9.83878307 -13.79464246 10.20679726 -17 10 C-14.61874536 7.61874536 -12.66142433 6.99813759 -9.5 5.875 C-8.03046875 5.34519531 -8.03046875 5.34519531 -6.53125 4.8046875 C-4 4 -4 4 -2 4 C-2 3.34 -2 2.68 -2 2 C-3.65 2.33 -5.3 2.66 -7 3 C-4.74624683 0.74624683 -3.20799182 0 0 0 Z " fill="#4EB7C9" transform="translate(80,317)"/>
<path d="M0 0 C2 7.91596639 2 7.91596639 2 12 C-0.97 11.505 -0.97 11.505 -4 11 C-4 11.66 -4 12.32 -4 13 C-4 13.99 -4 14.98 -4 16 C-6.31 15.67 -8.62 15.34 -11 15 C-11 11 -11 11 -8.59375 8.203125 C-7.57248913 7.20839039 -6.5407803 6.22429311 -5.5 5.25 C-4.97535156 4.74339844 -4.45070313 4.23679687 -3.91015625 3.71484375 C-2.61558637 2.46734913 -1.3089224 1.23242693 0 0 Z " fill="#72C5D4" transform="translate(65,298)"/>
<path d="M0 0 C0.66 0 1.32 0 2 0 C2 0.99 2 1.98 2 3 C-0.68701266 5.1478128 -3.52687026 6.97506955 -6.3984375 8.8671875 C-9.21543911 11.17662125 -9.83934843 12.63522646 -11 16 C-13.625 17.8125 -13.625 17.8125 -16 19 C-16 18.01 -16 17.02 -16 16 C-17.98 17.65 -19.96 19.3 -22 21 C-22.66 20.67 -23.32 20.34 -24 20 C-17.02201606 14.05012028 -10.02389171 8.14791441 -2.828125 2.4609375 C-1.09166198 1.12864522 -1.09166198 1.12864522 0 0 Z " fill="#17A0B9" transform="translate(94,284)"/>
<path d="M0 0 C0.33 1.32 0.66 2.64 1 4 C-0.38788802 5.30020011 -1.78569258 6.5898193 -3.1875 7.875 C-3.96480469 8.59429687 -4.74210937 9.31359375 -5.54296875 10.0546875 C-8.96241996 12.76197956 -11.62893896 14 -16 14 C-14.28133968 12.0315169 -12.55115875 10.0756903 -10.8125 8.125 C-10.32974609 7.56941406 -9.84699219 7.01382812 -9.34960938 6.44140625 C-6.47750535 3.24161251 -4.25497678 1.22904265 0 0 Z " fill="#3EB0C4" transform="translate(93,281)"/>
<path d="M0 0 C1.35068317 2.70136634 0.73985317 4.13563046 0.125 7.0625 C-0.05804688 7.96097656 -0.24109375 8.85945313 -0.4296875 9.78515625 C-1 12 -1 12 -2 13 C-3.68608966 13.07205511 -5.37500659 13.08386068 -7.0625 13.0625 C-7.98160156 13.05347656 -8.90070312 13.04445313 -9.84765625 13.03515625 C-10.55792969 13.02355469 -11.26820312 13.01195312 -12 13 C-8.19524578 8.43969176 -4.25030379 4.14910608 0 0 Z " fill="#FDFEFE" transform="translate(36,329)"/>
<path d="M0 0 C0.66 0.33 1.32 0.66 2 1 C1.01 2.485 1.01 2.485 0 4 C0.66 4.66 1.32 5.32 2 6 C0.21475351 7.19713017 -1.5784028 8.38247279 -3.375 9.5625 C-4.87160156 10.55443359 -4.87160156 10.55443359 -6.3984375 11.56640625 C-7.25695312 12.03949219 -8.11546875 12.51257813 -9 13 C-9.66 12.67 -10.32 12.34 -11 12 C-10.34 11.01 -9.68 10.02 -9 9 C-9.66 8.67 -10.32 8.34 -11 8 C-7.37 5.36 -3.74 2.72 0 0 Z " fill="#4CB6C9" transform="translate(96,290)"/>
<path d="M0 0 C0.66 0.33 1.32 0.66 2 1 C-2.62 5.62 -7.24 10.24 -12 15 C-12 12 -12 12 -9.375 9.08203125 C-8.25750594 7.98449244 -7.13214357 6.89492105 -6 5.8125 C-5.42765625 5.25369141 -4.8553125 4.69488281 -4.265625 4.11914062 C-2.85037212 2.73926907 -1.42602845 1.36873266 0 0 Z M-23 24 C-22.67 24.99 -22.34 25.98 -22 27 C-24.64 28.98 -27.28 30.96 -30 33 C-28.04783565 29.09567131 -26.12613393 26.96160056 -23 24 Z " fill="#3BAFC3" transform="translate(122,247)"/>
<path d="M0 0 C0.66 0.33 1.32 0.66 2 1 C1.01 2.32 0.02 3.64 -1 5 C0.32 4.34 1.64 3.68 3 3 C0.33333333 5.66666667 -2.33333333 8.33333333 -5 11 C-5.66 10.67 -6.32 10.34 -7 10 C-7 9.67 -7 9.34 -7 9 C-8.32 10.32 -9.64 11.64 -11 13 C-11.66 12.67 -12.32 12.34 -13 12 C-12.360625 11.4225 -11.72125 10.845 -11.0625 10.25 C-9.01776132 8.01937599 -8.41794801 6.92563609 -8 4 C-7.01 4.33 -6.02 4.66 -5 5 C-3.35 3.35 -1.7 1.7 0 0 Z " fill="#81CBD9" transform="translate(80,290)"/>
<path d="M0 0 C-1.31177858 2.9262753 -2.75289234 4.75289234 -5 7 C-5.433125 7.99 -5.433125 7.99 -5.875 9 C-7.43291989 11.76963537 -9.13368017 12.70333151 -12 14 C-14.1640625 13.57421875 -14.1640625 13.57421875 -16 13 C-13.71584679 10.82529395 -11.42149089 8.66166755 -9.125 6.5 C-8.47402344 5.87996094 -7.82304688 5.25992187 -7.15234375 4.62109375 C-6.21455078 3.74130859 -6.21455078 3.74130859 -5.2578125 2.84375 C-4.6817627 2.29912109 -4.10571289 1.75449219 -3.51220703 1.19335938 C-2 0 -2 0 0 0 Z " fill="#53B9CB" transform="translate(106,269)"/>
<path d="M0 0 C-0.33 0.99 -0.66 1.98 -1 3 C-0.34 3.66 0.32 4.32 1 5 C0.34 5 -0.32 5 -1 5 C-1 5.66 -1 6.32 -1 7 C0.65 7 2.3 7 4 7 C1.90202645 9.09797355 0.24390344 9.96787972 -2.4375 11.1875 C-3.21996094 11.55230469 -4.00242187 11.91710937 -4.80859375 12.29296875 C-7 13 -7 13 -10 12 C-8.02 11.34 -6.04 10.68 -4 10 C-4.165 9.401875 -4.33 8.80375 -4.5 8.1875 C-5 6 -5 6 -5 3 C-2.55555556 0 -2.55555556 0 0 0 Z " fill="#5CBCCD" transform="translate(90,304)"/>
<path d="M0 0 C0.66 0.33 1.32 0.66 2 1 C1.01 2.485 1.01 2.485 0 4 C1.65 3.67 3.3 3.34 5 3 C1.63576723 5.96052484 -1.69159287 6.92289822 -6 8 C-6.99 7.01 -7.98 6.02 -9 5 C-7.54735962 4.1361871 -6.0876837 3.28419546 -4.625 2.4375 C-3.40683594 1.72400391 -3.40683594 1.72400391 -2.1640625 0.99609375 C-1.44992188 0.66738281 -0.73578125 0.33867187 0 0 Z " fill="#4AB5C8" transform="translate(66,318)"/>
<path d="M0 0 C0 4 0 4 -1 7 C-3.5625 8.1875 -3.5625 8.1875 -6 9 C-6 8.34 -6 7.68 -6 7 C-6.78375 7.515625 -7.5675 8.03125 -8.375 8.5625 C-9.24125 9.036875 -10.1075 9.51125 -11 10 C-11.66 9.67 -12.32 9.34 -13 9 C-11.20966193 7.68568828 -9.41768797 6.3736047 -7.625 5.0625 C-6.62726563 4.33160156 -5.62953125 3.60070312 -4.6015625 2.84765625 C-2 1 -2 1 0 0 Z " fill="#16A0B8" transform="translate(80,303)"/>
<path d="M0 0 C0.99 0.33 1.98 0.66 3 1 C3.042721 2.66611905 3.04063832 4.33382885 3 6 C2.67 6.33 2.34 6.66 2 7 C2.99 7.66 3.98 8.32 5 9 C3.02 9.33 1.04 9.66 -1 10 C-1 9.01 -1 8.02 -1 7 C-1.66 6.67 -2.32 6.34 -3 6 C-3 4.68 -3 3.36 -3 2 C-2.01 1.34 -1.02 0.68 0 0 Z " fill="#5FBDCE" transform="translate(50,323)"/>
<path d="M0 0 C0.66 0 1.32 0 2 0 C2 0.99 2 1.98 2 3 C-0.40625 5.04296875 -0.40625 5.04296875 -3.5 7.1875 C-4.5209375 7.90292969 -5.541875 8.61835938 -6.59375 9.35546875 C-7.3878125 9.89816406 -8.181875 10.44085938 -9 11 C-9.66 10.34 -10.32 9.68 -11 9 C-9.93458984 8.15115234 -9.93458984 8.15115234 -8.84765625 7.28515625 C-7.92855469 6.55167969 -7.00945312 5.81820313 -6.0625 5.0625 C-5.14597656 4.33160156 -4.22945313 3.60070312 -3.28515625 2.84765625 C-1.59148731 1.48061289 -1.59148731 1.48061289 0 0 Z " fill="#0699B4" transform="translate(94,284)"/>
<path d="M0 0 C0.66 0.33 1.32 0.66 2 1 C2 1.33 2 1.66 2 2 C2.66 2.33 3.32 2.66 4 3 C1.36 4.98 -1.28 6.96 -4 9 C-4.66 8.67 -5.32 8.34 -6 8 C-5.65120368 4.74456771 -4.97866739 3.98126893 -2.4375 1.75 C-1.633125 1.1725 -0.82875 0.595 0 0 Z " fill="#6FC4D3" transform="translate(78,299)"/>
<path d="M0 0 C0.99 0 1.98 0 3 0 C3 0.66 3 1.32 3 2 C5.64 1.67 8.28 1.34 11 1 C10 3 10 3 8.0390625 3.88671875 C7.24242188 4.15097656 6.44578125 4.41523438 5.625 4.6875 C4.83351563 4.95949219 4.04203125 5.23148437 3.2265625 5.51171875 C1 6 1 6 -2 5 C-2 3 -2 3 0 1 C0 0.67 0 0.34 0 0 Z " fill="#2BA8BF" transform="translate(57,325)"/>
<path d="M0 0 C1 4 1 4 1 7 C-0.65 7.66 -2.3 8.32 -4 9 C-4.66 8.01 -5.32 7.02 -6 6 C-4.02 4.02 -2.04 2.04 0 0 Z " fill="#66C0D0" transform="translate(65,298)"/>
<path d="M0 0 C0.66 0.33 1.32 0.66 2 1 C1.979375 1.78375 1.95875 2.5675 1.9375 3.375 C1.81315937 5.98114961 1.81315937 5.98114961 3 8 C1.02 8.33 -0.96 8.66 -3 9 C-2.4140625 2.84765625 -2.4140625 2.84765625 -2 1 C-1.34 0.67 -0.68 0.34 0 0 Z " fill="#B4E0E8" transform="translate(40,330)"/>
<path d="M0 0 C1.98 0.66 3.96 1.32 6 2 C4 4 4 4 2 5 C1.34 5.66 0.68 6.32 0 7 C-0.99 5.68 -1.98 4.36 -3 3 C-2.01 2.01 -1.02 1.02 0 0 Z " fill="#8ED1DD" transform="translate(52,311)"/>
<path d="M0 0 C0 0.99 0 1.98 0 3 C0.66 3.33 1.32 3.66 2 4 C0.02 5.32 -1.96 6.64 -4 8 C-4.66 7.67 -5.32 7.34 -6 7 C-5.34 6.01 -4.68 5.02 -4 4 C-4.66 3.67 -5.32 3.34 -6 3 C-2.25 0 -2.25 0 0 0 Z " fill="#70C4D3" transform="translate(91,295)"/>
<path d="M0 0 C0.33 0.66 0.66 1.32 1 2 C2.98 1.67 4.96 1.34 7 1 C4.6870518 3.3129482 3.52095125 3.49580975 0.375 4.125 C-0.44226563 4.29257812 -1.25953125 4.46015625 -2.1015625 4.6328125 C-3.04128906 4.81457031 -3.04128906 4.81457031 -4 5 C-3.34 4.67 -2.68 4.34 -2 4 C-2 3.34 -2 2.68 -2 2 C-3.65 2.33 -5.3 2.66 -7 3 C-4.74624683 0.74624683 -3.20799182 0 0 0 Z " fill="#70C4D3" transform="translate(80,317)"/>
<path d="M0 0 C0 0.66 0 1.32 0 2 C0.99 2.33 1.98 2.66 3 3 C-2.2734375 6.22265625 -2.2734375 6.22265625 -4 7 C-4.66 6.67 -5.32 6.34 -6 6 C-5.01 5.01 -4.02 4.02 -3 3 C-3.66 2.67 -4.32 2.34 -5 2 C-2 0 -2 0 0 0 Z " fill="#73C6D4" transform="translate(82,305)"/>
<path d="M0 0 C0.66 0 1.32 0 2 0 C1.375 2.8125 1.375 2.8125 0 6 C-3.125 7.875 -3.125 7.875 -6 9 C-4.4722133 5.56247993 -2.49818944 2.81046312 0 0 Z " fill="#25A6BD" transform="translate(94,287)"/>
<path d="M0 0 C1.32 0.66 2.64 1.32 4 2 C3.1028125 2.433125 3.1028125 2.433125 2.1875 2.875 C-0.19327792 4.04742026 -0.19327792 4.04742026 -3 6 C-3.99 6 -4.98 6 -6 6 C-6 5.34 -6 4.68 -6 4 C-4.03852126 2.61061923 -2.03833424 1.2739589 0 0 Z " fill="#17A0B9" transform="translate(88,301)"/>
<path d="M0 0 C0.66 0.33 1.32 0.66 2 1 C1.2884375 1.6496875 1.2884375 1.6496875 0.5625 2.3125 C-1.23686957 4.02309613 -1.23686957 4.02309613 -2 7 C-4.0625 8.1875 -4.0625 8.1875 -6 9 C-5.69381595 5.32579134 -5.24228216 4.21864487 -2.4375 1.6875 C-1.633125 1.130625 -0.82875 0.57375 0 0 Z " fill="#46B3C7" transform="translate(90,290)"/>
<path d="M0 0 C-0.33 0.99 -0.66 1.98 -1 3 C-0.34 3.66 0.32 4.32 1 5 C-0.98 5.66 -2.96 6.32 -5 7 C-5 3 -5 3 -3.625 1.25 C-2 0 -2 0 0 0 Z " fill="#66C0D0" transform="translate(90,304)"/>
<path d="M0 0 C-1.4317616 0.69937202 -2.87067032 1.38412718 -4.3125 2.0625 C-5.51326172 2.63677734 -5.51326172 2.63677734 -6.73828125 3.22265625 C-9 4 -9 4 -12 3 C-8.08270009 -0.33695918 -5.0005885 -1.66686283 0 0 Z " fill="#5ABBCD" transform="translate(71,322)"/>
<path d="M0 0 C2.475 0.99 2.475 0.99 5 2 C4.67 2.99 4.34 3.98 4 5 C2.35 5 0.7 5 -1 5 C-0.67 3.35 -0.34 1.7 0 0 Z " fill="#87CEDB" transform="translate(47,320)"/>
<path d="M0 0 C0.33 0.66 0.66 1.32 1 2 C2.65 2 4.3 2 6 2 C6 2.33 6 2.66 6 3 C4.35 3 2.7 3 1 3 C1 3.66 1 4.32 1 5 C0.01 5 -0.98 5 -2 5 C-2.33 4.01 -2.66 3.02 -3 2 C-2.01 2 -1.02 2 0 2 C0 1.34 0 0.68 0 0 Z " fill="#9CD6E1" transform="translate(40,337)"/>
</svg>
